<svg viewBox="0 0 100 100" xmlns="http://www.w3.org/2000/svg" class="{{ .margin_class }} {{ .icon_class }}" aria-hidden="true" role="img">
  <defs>
    
    <g id="icon_data" stroke-linejoin="round">
        <path d="M33.3333 1.5C42.1774 1.5 50.2737 3.3712 56.1057 6.28745C62.0459 9.25782 65.1667 13.0411 65.1667 16.6667V25C65.1667 28.6256 62.0459 32.4088 56.1057 35.3792C50.2737 38.2955 42.1774 40.1667 33.3333 40.1667C24.4893 40.1667 16.393 38.2955 10.561 35.3792C4.62074 32.4088 1.5 28.6256 1.5 25V16.6667C1.5 13.0411 4.62074 9.25782 10.561 6.28745C16.393 3.3712 24.4893 1.5 33.3333 1.5ZM65.1667 61.5252V66.6667C65.1667 70.2922 62.0459 74.0755 56.1057 77.0459C50.2737 79.9621 42.1774 81.8333 33.3333 81.8333C24.4893 81.8333 16.393 79.9621 10.561 77.0459C4.62074 74.0755 1.5 70.2922 1.5 66.6667V61.5252C3.40559 63.7421 6.0978 65.6683 9.21924 67.2291C15.5362 70.3879 24.1065 72.3333 33.3333 72.3333C42.5601 72.3333 51.1305 70.3879 57.4474 67.2291C60.5689 65.6683 63.2611 63.7421 65.1667 61.5252Z"/>
        <path d="M33.3333 51.5C42.5601 51.5 51.1305 49.5546 57.4474 46.3958C60.5689 44.835 63.2611 42.9088 65.1667 40.6919V45.8334C65.1667 49.4589 62.0459 53.2422 56.1057 56.2126C50.2737 59.1288 42.1774 61 33.3333 61C24.4893 61 16.393 59.1288 10.561 56.2126C4.62074 53.2422 1.5 49.4589 1.5 45.8334V40.6919C3.40559 42.9088 6.0978 44.835 9.21924 46.3958C15.5362 49.5546 24.1065 51.5 33.3333 51.5Z"/>
    </g>

    <path id="icon_software" d="M77 76.5H10.3333C8.1232 76.5 6.00358 75.622 4.44078 74.0592C2.87797 72.4964 2 70.3768 2 68.1667V9.83333C2 7.6232 2.87797 5.50358 4.44078 3.94078C6.00358 2.37797 8.1232 1.5 10.3333 1.5H77C79.2101 1.5 81.3298 2.37797 82.8926 3.94078C84.4554 5.50358 85.3333 7.6232 85.3333 9.83333V68.1667C85.3333 70.3768 84.4554 72.4964 82.8926 74.0592C81.3298 75.622 79.2101 76.5 77 76.5ZM10.3333 18.1667V68.1667H77V18.1667H10.3333ZM54.9458 58.6125L49.0583 52.725L58.6083 43.1667L49.0542 33.6125L54.9458 27.7208L70.3917 43.1667L54.95 58.6083L54.9458 58.6125V58.6125ZM32.3875 58.6125L16.9417 43.1667L32.3875 27.7208L38.2792 33.6125L28.725 43.1667L38.275 52.7208L32.3875 58.6083V58.6125V58.6125Z" stroke-linejoin="bevel"/>

    <path id="icon_models" d="M44 2.33325C21.025 2.33325 2.33331 21.0249 2.33331 43.9999C2.33331 66.9749 21.025 85.6666 44 85.6666C66.975 85.6666 85.6667 66.9749 85.6667 43.9999C85.6667 21.0249 66.975 2.33325 44 2.33325ZM10.6666 43.9999C10.6666 40.2541 11.3166 36.6583 12.4625 33.2958L19 39.8333L27.3333 48.1666V56.4999L35.6666 64.8333L39.8333 68.9999V77.0458C23.4208 74.9833 10.6666 60.9666 10.6666 43.9999ZM70.375 64.3041C67.6542 62.1124 63.5291 60.6666 60.6666 60.6666V56.4999C60.6666 54.2898 59.7887 52.1702 58.2259 50.6074C56.6631 49.0446 54.5435 48.1666 52.3333 48.1666H35.6666V35.6666C37.8768 35.6666 39.9964 34.7886 41.5592 33.2258C43.122 31.663 44 29.5434 44 27.3333V23.1666H48.1666C50.3768 23.1666 52.4964 22.2886 54.0592 20.7258C55.622 19.163 56.5 17.0434 56.5 14.8333V13.1208C68.7 18.0749 77.3333 30.0416 77.3333 43.9999C77.3326 51.3528 74.8845 58.4963 70.375 64.3041V64.3041Z" stroke-linejoin="round"/>

    <path id="icon_research" d="M 50.022434,21.278576 V 37.691991 M 33.60902,8.9685151 h 8.206708 a 8.2067072,8.2067072 0 0 1 8.206706,8.2067069 v 4.103354 H 41.815728 A 8.2067072,8.2067072 0 0 1 33.60902,13.071869 Z M 43.867404,37.691991 h 12.310062 v 13.249728 a 20.524974,20.524974 0 0 1 -6.155032,40.089765 20.516768,20.516768 0 0 1 -6.15503,-40.089765 z m -4.103353,0 h 20.516768 m 6.15503,-24.620122 h -8.206706 a 8.2067072,8.2067072 0 0 0 -8.206709,8.206707 v 4.103354 h 8.206709 a 8.2067072,8.2067072 0 0 0 8.206706,-8.206708 z" stroke-linejoin="round"/>
    
    <path id="icon_tech_support" d="M 89.436162,26.194564 C 89.080824,24.762011 87.288145,24.276542 86.244276,25.320412 L 74.447584,37.117103 63.678945,35.322886 61.884727,24.554161 73.681333,12.757529 C 74.73153,11.707315 74.225455,9.9178259 72.783412,9.5592902 65.266936,7.6968301 56.990536,9.703657 51.116002,15.57661 44.827477,21.865186 43.096615,30.980768 45.714283,38.928763 L 11.861507,72.781547 c -3.9644755,3.964464 -3.9644755,10.392696 0,14.35716 3.964456,3.964464 10.392688,3.964464 14.357152,0 L 60.042886,53.31448 c 7.951158,2.650927 17.049299,0.901084 23.37912,-5.428737 5.880861,-5.880861 7.884554,-14.169915 6.014156,-21.691179 z M 19.041703,83.765989 c -2.102017,0 -3.807452,-1.705469 -3.807452,-3.807486 0,-2.103557 1.705435,-3.807401 3.807452,-3.807401 2.102018,0 3.807401,1.703844 3.807401,3.807401 0,2.102017 -1.705383,3.807486 -3.807401,3.807486 z"/>

    <path id="icon_workflows" d="M39.5 18.8334H27L43.6667 2.16675L60.3333 18.8334H47.8333V37.2918C44.7083 39.2084 41.9167 41.5834 39.5 44.3334V18.8334ZM85.3333 43.8334L68.6667 27.1667V39.6668C61.4294 39.3691 54.3565 41.8765 48.9227 46.666C43.4888 51.4556 40.1133 58.1577 39.5 65.3751C36.3758 66.4843 33.8187 68.787 32.3894 71.7784C30.9601 74.7698 30.7751 78.2059 31.875 81.3334C32.9843 84.4577 35.2869 87.0147 38.2783 88.444C41.2697 89.8733 44.7058 90.0583 47.8333 88.9584C50.9548 87.8455 53.509 85.5423 54.9377 82.5521C56.3664 79.562 56.5536 76.1278 55.4583 73.0001C54.2083 69.4168 51.375 66.6251 47.8333 65.3751C49.7917 48.7084 66.4583 47.8751 68.4583 47.8751V60.3751L85.3333 43.8334ZM37.9583 46.2918C32.4297 42.025 25.6502 39.6968 18.6667 39.6668V27.1667L2 43.8334L18.6667 60.5001V48.0001C24.25 48.1251 29.625 50.0834 33.8333 53.8334C34.875 51.1667 36.25 48.6251 37.9583 46.2918Z" stroke-linejoin="round"/>

    <path id="icon_tags" d="M38.5462 78.0333L38.5557 78.0334C40.3606 78.0402 42.1012 77.3177 43.3782 76.0339L43.3811 76.0309L76.0353 43.3851L76.0369 43.3834C76.7345 42.6882 77.2728 41.8497 77.6147 40.9261C77.9566 40.0024 78.0939 39.0156 78.0171 38.0337L78.0168 38.0306L75.9335 10.6723L75.9335 10.6723L75.9331 10.6665C75.8152 9.03522 75.1123 7.50138 73.9536 6.3471C72.7949 5.19281 71.2584 4.49571 69.6267 4.38403L69.6267 4.38407L69.6153 4.3832L42.2569 2.29986L42.1577 2.29231L42.0604 2.27172C42.0215 2.2635 41.9645 2.25836 41.725 2.25836C39.9141 2.25836 38.1857 2.97541 36.9149 4.25644L36.9104 4.26096L4.25211 36.9026C3.61728 37.5371 3.11369 38.2906 2.77011 39.1198C2.42653 39.949 2.24969 40.8378 2.24969 41.7354C2.24969 42.633 2.42653 43.5219 2.77011 44.3511C3.11369 45.1803 3.61728 45.9337 4.25211 46.5683L4.25225 46.5685L33.7189 76.031L33.722 76.0341C34.354 76.6697 35.1058 77.1737 35.9339 77.5169C36.762 77.8601 37.6499 78.0356 38.5462 78.0333ZM49.2165 30.9542C47.8643 29.5795 46.9458 27.8373 46.5759 25.9443C46.2035 24.0389 46.4035 22.0659 47.1507 20.274C47.8978 18.4821 49.1587 16.9515 50.7744 15.875C52.39 14.7986 54.2882 14.2244 56.2296 14.225C57.8466 14.2255 59.4386 14.6247 60.8645 15.3874C62.2904 16.15 63.5062 17.2526 64.4043 18.5973C65.3023 19.9421 65.8549 21.4875 66.013 23.0968C66.1711 24.7061 65.9299 26.3296 65.3108 27.8234C64.6916 29.3172 63.7136 30.6353 62.4634 31.6609C61.2132 32.6865 59.7294 33.3879 58.1434 33.7031C56.5573 34.0183 54.9181 33.9375 53.3707 33.4678C51.8426 33.004 50.4507 32.175 49.3152 31.0529L49.2843 31.0264L49.2435 30.9857L49.2143 30.9565L49.2165 30.9542Z"/>
  </defs>
  
  
  <use href="#icon_{{ .type }}" x="{{ .x }}" y="{{ .y }}" fill="{{ .fill | default "none" }}" stroke="{{ .color | default "currentColor" }}" stroke-width="{{ .stroke_width | default "3" }}" />
</svg>