<svg xmlns="http://www.w3.org/2000/svg" width="100" height="100" viewBox="0 0 24 24" stroke-linecap="round" stroke-linejoin="round" class="{{ .margin_class }} {{ .icon_class }}" aria-hidden="true" role="img">
  <defs>
    
    <g id="icon_data">
        <ellipse cx="12" cy="5" rx="9" ry="3"/>
        <path d="M3 5V19A9 3 0 0 0 21 19V5"/>
        <path d="M3 12A9 3 0 0 0 21 12"/>
    </g>

    <g id="icon_software">
        <path d="m10 9-3 3 3 3"/>
        <path d="m14 15 3-3-3-3"/>
        <rect x="3" y="3" width="18" height="18" rx="2"/>
    </g>

    <g id="icon_models">
        <path d="m13.11 7.664 1.78 2.672"/>
        <path d="m14.162 12.788-3.324 1.424"/>
        <path d="m20 4-6.06 1.515"/>
        <path d="M3 3v16a2 2 0 0 0 2 2h16"/>
        <circle cx="12" cy="6" r="2"/>
        <circle cx="16" cy="12" r="2"/>
        <circle cx="9" cy="15" r="2"/>
    </g>

    <path id="icon_research" d="M18 7V5a1 1 0 0 0-1-1H6.5a.5.5 0 0 0-.4.8l4.5 6a2 2 0 0 1 0 2.4l-4.5 6a.5.5 0 0 0 .4.8H17a1 1 0 0 0 1-1v-2"/>
    
    <path id="icon_tech_support" d="M14.7 6.3a1 1 0 0 0 0 1.4l1.6 1.6a1 1 0 0 0 1.4 0l3.106-3.105c.32-.322.863-.22.983.218a6 6 0 0 1-8.259 7.057l-7.91 7.91a1 1 0 0 1-2.999-3l7.91-7.91a6 6 0 0 1 7.057-8.259c.438.12.54.662.219.984z"/>

    <g id="icon_workflows">
        <circle cx="6" cy="19" r="3"/>
        <path d="M9 19h8.5a3.5 3.5 0 0 0 0-7h-11a3.5 3.5 0 0 1 0-7H15"/>
        <circle cx="18" cy="5" r="3"/>
    </g>

    <g id="icon_tags">
        <path d="M13.172 2a2 2 0 0 1 1.414.586l6.71 6.71a2.4 2.4 0 0 1 0 3.408l-4.592 4.592a2.4 2.4 0 0 1-3.408 0l-6.71-6.71A2 2 0 0 1 6 9.172V3a1 1 0 0 1 1-1z"/>
        <path d="M2 7v6.172a2 2 0 0 0 .586 1.414l6.71 6.71a2.4 2.4 0 0 0 3.191.193"/>
        <circle cx="10.5" cy="6.5" r=".5" fill="currentColor"/>
    </g>

    <g id="icon_news">
        <path d="M4.9 16.1C1 12.2 1 5.8 4.9 1.9"/>
        <path d="M7.8 4.7a6.14 6.14 0 0 0-.8 7.5"/>
        <circle cx="12" cy="9" r="2"/>
        <path d="M16.2 4.8c2 2 2.26 5.11.8 7.47"/>
        <path d="M19.1 1.9a9.96 9.96 0 0 1 0 14.1"/>
        <path d="M9.5 18h5"/>
        <path d="m8 22 4-11 4 11"/>
    </g>

    <g id="icon_training">
        <path d="M21.42 10.922a1 1 0 0 0-.019-1.838L12.83 5.18a2 2 0 0 0-1.66 0L2.6 9.08a1 1 0 0 0 0 1.832l8.57 3.908a2 2 0 0 0 1.66 0z"/>
        <path d="M22 10v6"/>
        <path d="M6 12.5V16a6 3 0 0 0 12 0v-3.5"/>
    </g>

    <g id="icon_about">
        <circle cx="12" cy="12" r="10"/>
        <path d="M12 16v-4"/>
        <path d="M12 8h.01"/>
    </g>
  </defs>
  
  
  <use href="#icon_{{ .type }}" x="{{ .x | default "0" }}" y="{{ .y | default "0" }}" fill="{{ .fill | default "none" }}" stroke="{{ .color | default "currentColor" }}" stroke-width="{{ .stroke_width | default "3" }}" />
</svg>