<svg width="15" height="15" viewBox="0 0 15 15" fill="none" xmlns="http://www.w3.org/2000/svg">
<path d="M13.75 5.38V10.4688C13.75 10.9876 13.5515 11.4868 13.1952 11.8639C12.8389 12.241 12.3518 12.4675 11.8337 12.4969L11.7188 12.5H3.28125C2.76241 12.5 2.26323 12.3015 1.88611 11.9452C1.50898 11.5889 1.2825 11.1018 1.25313 10.5837L1.25 10.4688V5.38L7.2825 8.54C7.34961 8.57515 7.42424 8.59351 7.5 8.59351C7.57576 8.59351 7.65039 8.57515 7.7175 8.54L13.75 5.38ZM3.28125 2.5H11.7188C12.2222 2.49994 12.7078 2.68687 13.0813 3.02454C13.4547 3.36221 13.6895 3.82655 13.74 4.3275L7.5 7.59625L1.26 4.3275C1.30845 3.84645 1.52691 3.39845 1.87609 3.06404C2.22528 2.72963 2.6823 2.53074 3.165 2.50313L3.28125 2.5H11.7188H3.28125Z" fill="#FCFCFC"/>
</svg>
