<?xml version="1.0" encoding="UTF-8" standalone="no"?>
<!-- Created with Inkscape (http://www.inkscape.org/) -->

<svg
   width="15"
   height="15"
   viewBox="0 0 3.9687499 3.96875"
   version="1.1"
   id="svg1"
   xmlns="http://www.w3.org/2000/svg"
   xmlns:svg="http://www.w3.org/2000/svg">
  <defs
     id="defs1">
    <marker
       style="overflow:visible"
       id="RoundedArrow"
       refX="0"
       refY="0"
       orient="auto-start-reverse"
       markerWidth="0.5"
       markerHeight="0.5"
       viewBox="0 0 1 1"
       preserveAspectRatio="xMidYMid">
      <path
         transform="scale(0.7)"
         d="m -0.21114562,-4.1055728 6.42229122,3.21114561 a 1,1 90 0 1 0,1.78885438 L -0.21114562,4.1055728 A 1.236068,1.236068 31.717474 0 1 -2,3 v -6 a 1.236068,1.236068 148.28253 0 1 1.78885438,-1.1055728 z"
         style="fill:context-stroke;fill-rule:evenodd;stroke:none"
         id="path8" />
    </marker>
  </defs>
  <g
     id="layer1">
    <g
       id="g1"
       transform="translate(-0.13826575,0.23078512)"
       style="fill:none;stroke:#ffffff;stroke-opacity:0.55">
      <path
         id="rect1"
         style="fill:none;stroke:#ffffff;stroke-width:0.264583;stroke-linecap:round;stroke-opacity:0.55"
         d="M 3.5448472,1.5191743 V 2.9507699 A 0.42382655,0.42382655 135 0 1 3.1210207,3.3745965 l -2.20139602,0 A 0.43166386,0.43166386 45 0 1 0.48796082,2.9429326 l 0,-1.8025451 A 0.4183021,0.4183021 135 0 1 0.90626292,0.72208542 H 2.5455707"
         transform="translate(-0.03202901,-0.06396596)" />
      <path
         style="opacity:0.55;fill:none;stroke:#ffffff;stroke-width:0.265;stroke-linecap:round;stroke-dasharray:none;stroke-opacity:1;marker-end:url(#RoundedArrow)"
         d="M 1.7721443,2.1401894 3.4448008,0.52735581"
         id="path1" />
    </g>
  </g>
</svg>
