<?xml version="1.0" encoding="UTF-8" standalone="no"?>
<svg
   width="100"
   height="100"
   viewBox="0 0 100 100"
   version="1.1"
   id="svg1"
   xmlns="http://www.w3.org/2000/svg"
   xmlns:svg="http://www.w3.org/2000/svg">
  <defs
     id="defs1" />
  <path
     fill="none"
     stroke="currentColor"
     stroke-linecap="round"
     stroke-linejoin="round"
     stroke-width="6.97707"
     d="M 50.025431,17.442672 V 36.048188 M 31.419914,3.4885342 h 9.302759 a 9.3027582,9.3027582 0 0 1 9.302758,9.3027588 v 4.651379 H 40.722673 A 9.3027582,9.3027582 0 0 1 31.419914,8.1399132 Z M 43.048362,36.048188 H 57.0025 V 51.067491 A 23.266198,23.266198 0 0 1 50.025431,96.511465 23.256896,23.256896 0 0 1 43.048362,51.067491 Z m -4.651379,0 H 61.653879 M 68.630948,8.1399132 H 59.32819 a 9.3027582,9.3027582 0 0 0 -9.302759,9.3027588 v 4.651379 h 9.302759 a 9.3027582,9.3027582 0 0 0 9.302758,-9.302758 z"
     id="path1" />
</svg>
