<svg width="87" height="78" viewBox="0 0 87 78" fill="none" xmlns="http://www.w3.org/2000/svg">
<path d="M77 76.5H10.3333C8.1232 76.5 6.00358 75.622 4.44078 74.0592C2.87797 72.4964 2 70.3768 2 68.1667V9.83333C2 7.6232 2.87797 5.50358 4.44078 3.94078C6.00358 2.37797 8.1232 1.5 10.3333 1.5H77C79.2101 1.5 81.3298 2.37797 82.8926 3.94078C84.4554 5.50358 85.3333 7.6232 85.3333 9.83333V68.1667C85.3333 70.3768 84.4554 72.4964 82.8926 74.0592C81.3298 75.622 79.2101 76.5 77 76.5ZM10.3333 18.1667V68.1667H77V18.1667H10.3333ZM54.9458 58.6125L49.0583 52.725L58.6083 43.1667L49.0542 33.6125L54.9458 27.7208L70.3917 43.1667L54.95 58.6083L54.9458 58.6125V58.6125ZM32.3875 58.6125L16.9417 43.1667L32.3875 27.7208L38.2792 33.6125L28.725 43.1667L38.275 52.7208L32.3875 58.6083V58.6125V58.6125Z" stroke="#ED51C1" stroke-width="3" stroke-linejoin="bevel"/>
</svg>
