<svg width="99" height="99" viewBox="0 0 99 99" fill="none" xmlns="http://www.w3.org/2000/svg">
<path d="M96.2082 22.2429C95.7926 20.5674 93.6959 19.9996 92.475 21.2205L78.6777 35.0178L66.0828 32.9193L63.9843 20.3243L77.7815 6.52707C79.0098 5.29875 78.4179 3.20578 76.7313 2.78644C67.9401 0.608124 58.2601 2.95529 51.3893 9.82424C44.0343 17.1793 42.0099 27.8408 45.0715 37.1367L5.47761 76.7306C0.840796 81.3674 0.840796 88.8858 5.47761 93.5226C10.1144 98.1594 17.6328 98.1594 22.2696 93.5226L61.8301 53.9621C71.1297 57.0626 81.7708 55.016 89.1741 47.6127C96.0523 40.7345 98.3958 31.0397 96.2082 22.2429V22.2429ZM13.8755 89.5779C11.417 89.5779 9.42234 87.5832 9.42234 85.1247C9.42234 82.6644 11.417 80.6716 13.8755 80.6716C16.334 80.6716 18.3286 82.6644 18.3286 85.1247C18.3286 87.5832 16.334 89.5779 13.8755 89.5779Z" stroke="#5AE2DA" stroke-width="3"/>
</svg>
