<svg width="67" height="84" viewBox="0 0 67 84" fill="none" xmlns="http://www.w3.org/2000/svg">
<path d="M33.3333 1.5C42.1774 1.5 50.2737 3.3712 56.1057 6.28745C62.0459 9.25782 65.1667 13.0411 65.1667 16.6667V25C65.1667 28.6256 62.0459 32.4088 56.1057 35.3792C50.2737 38.2955 42.1774 40.1667 33.3333 40.1667C24.4893 40.1667 16.393 38.2955 10.561 35.3792C4.62074 32.4088 1.5 28.6256 1.5 25V16.6667C1.5 13.0411 4.62074 9.25782 10.561 6.28745C16.393 3.3712 24.4893 1.5 33.3333 1.5ZM65.1667 61.5252V66.6667C65.1667 70.2922 62.0459 74.0755 56.1057 77.0459C50.2737 79.9621 42.1774 81.8333 33.3333 81.8333C24.4893 81.8333 16.393 79.9621 10.561 77.0459C4.62074 74.0755 1.5 70.2922 1.5 66.6667V61.5252C3.40559 63.7421 6.0978 65.6683 9.21924 67.2291C15.5362 70.3879 24.1065 72.3333 33.3333 72.3333C42.5601 72.3333 51.1305 70.3879 57.4474 67.2291C60.5689 65.6683 63.2611 63.7421 65.1667 61.5252Z" stroke="#F8F8F8" stroke-width="3" stroke-linejoin="round"/>
<path d="M33.3333 51.5C42.5601 51.5 51.1305 49.5546 57.4474 46.3958C60.5689 44.835 63.2611 42.9088 65.1667 40.6919V45.8334C65.1667 49.4589 62.0459 53.2422 56.1057 56.2126C50.2737 59.1288 42.1774 61 33.3333 61C24.4893 61 16.393 59.1288 10.561 56.2126C4.62074 53.2422 1.5 49.4589 1.5 45.8334V40.6919C3.40559 42.9088 6.0978 44.835 9.21924 46.3958C15.5362 49.5546 24.1065 51.5 33.3333 51.5Z" stroke="#F8F8F8" stroke-width="3" stroke-linejoin="round"/>
</svg>
