<?xml version="1.0" encoding="UTF-8" standalone="no"?>
<svg
   width="100"
   height="100"
   viewBox="0 0 100 100"
   version="1.1"
   id="svg1"
   xmlns="http://www.w3.org/2000/svg"
   xmlns:svg="http://www.w3.org/2000/svg">
  <defs
     id="defs1" />
  <path
     fill="none"
     stroke="currentColor"
     stroke-linecap="round"
     stroke-linejoin="round"
     stroke-width="6.15503"
     d="M 50.022434,21.278576 V 37.691991 M 33.60902,8.9685151 h 8.206708 a 8.2067072,8.2067072 0 0 1 8.206706,8.2067069 v 4.103354 H 41.815728 A 8.2067072,8.2067072 0 0 1 33.60902,13.071869 Z M 43.867404,37.691991 h 12.310062 v 13.249728 a 20.524974,20.524974 0 0 1 -6.155032,40.089765 20.516768,20.516768 0 0 1 -6.15503,-40.089765 z m -4.103353,0 h 20.516768 m 6.15503,-24.620122 h -8.206706 a 8.2067072,8.2067072 0 0 0 -8.206709,8.206707 v 4.103354 h 8.206709 a 8.2067072,8.2067072 0 0 0 8.206706,-8.206708 z"
     id="path1" />
</svg>
