<svg width="80" height="80" viewBox="0 0 80 80" fill="none" xmlns="http://www.w3.org/2000/svg">
<path d="M38.5462 78.0333L38.5557 78.0334C40.3606 78.0402 42.1012 77.3177 43.3782 76.0339L43.3811 76.0309L76.0353 43.3851L76.0369 43.3834C76.7345 42.6882 77.2728 41.8497 77.6147 40.9261C77.9566 40.0024 78.0939 39.0156 78.0171 38.0337L78.0168 38.0306L75.9335 10.6723L75.9335 10.6723L75.9331 10.6665C75.8152 9.03522 75.1123 7.50138 73.9536 6.3471C72.7949 5.19281 71.2584 4.49571 69.6267 4.38403L69.6267 4.38407L69.6153 4.3832L42.2569 2.29986L42.1577 2.29231L42.0604 2.27172C42.0215 2.2635 41.9645 2.25836 41.725 2.25836C39.9141 2.25836 38.1857 2.97541 36.9149 4.25644L36.9104 4.26096L4.25211 36.9026C3.61728 37.5371 3.11369 38.2906 2.77011 39.1198C2.42653 39.949 2.24969 40.8378 2.24969 41.7354C2.24969 42.633 2.42653 43.5219 2.77011 44.3511C3.11369 45.1803 3.61728 45.9337 4.25211 46.5683L4.25225 46.5685L33.7189 76.031L33.722 76.0341C34.354 76.6697 35.1058 77.1737 35.9339 77.5169C36.762 77.8601 37.6499 78.0356 38.5462 78.0333ZM49.2165 30.9542C47.8643 29.5795 46.9458 27.8373 46.5759 25.9443C46.2035 24.0389 46.4035 22.0659 47.1507 20.274C47.8978 18.4821 49.1587 16.9515 50.7744 15.875C52.39 14.7986 54.2882 14.2244 56.2296 14.225C57.8466 14.2255 59.4386 14.6247 60.8645 15.3874C62.2904 16.15 63.5062 17.2526 64.4043 18.5973C65.3023 19.9421 65.8549 21.4875 66.013 23.0968C66.1711 24.7061 65.9299 26.3296 65.3108 27.8234C64.6916 29.3172 63.7136 30.6353 62.4634 31.6609C61.2132 32.6865 59.7294 33.3879 58.1434 33.7031C56.5573 34.0183 54.9181 33.9375 53.3707 33.4678C51.8426 33.004 50.4507 32.175 49.3152 31.0529L49.2843 31.0264L49.2435 30.9857L49.2143 30.9565L49.2165 30.9542Z" stroke="black" stroke-width="3"/>
</svg>
