<svg width="88" height="88" viewBox="0 0 88 88" fill="none" xmlns="http://www.w3.org/2000/svg">
<path d="M44 2.33325C21.025 2.33325 2.33331 21.0249 2.33331 43.9999C2.33331 66.9749 21.025 85.6666 44 85.6666C66.975 85.6666 85.6667 66.9749 85.6667 43.9999C85.6667 21.0249 66.975 2.33325 44 2.33325ZM10.6666 43.9999C10.6666 40.2541 11.3166 36.6583 12.4625 33.2958L19 39.8333L27.3333 48.1666V56.4999L35.6666 64.8333L39.8333 68.9999V77.0458C23.4208 74.9833 10.6666 60.9666 10.6666 43.9999ZM70.375 64.3041C67.6542 62.1124 63.5291 60.6666 60.6666 60.6666V56.4999C60.6666 54.2898 59.7887 52.1702 58.2259 50.6074C56.6631 49.0446 54.5435 48.1666 52.3333 48.1666H35.6666V35.6666C37.8768 35.6666 39.9964 34.7886 41.5592 33.2258C43.122 31.663 44 29.5434 44 27.3333V23.1666H48.1666C50.3768 23.1666 52.4964 22.2886 54.0592 20.7258C55.622 19.163 56.5 17.0434 56.5 14.8333V13.1208C68.7 18.0749 77.3333 30.0416 77.3333 43.9999C77.3326 51.3528 74.8845 58.4963 70.375 64.3041V64.3041Z" stroke="#5254EF" stroke-width="3" stroke-linejoin="round"/>
</svg>
