<svg width="87" height="92" viewBox="0 0 87 92" fill="none" xmlns="http://www.w3.org/2000/svg">
<path d="M39.5 18.8334H27L43.6667 2.16675L60.3333 18.8334H47.8333V37.2918C44.7083 39.2084 41.9167 41.5834 39.5 44.3334V18.8334ZM85.3333 43.8334L68.6667 27.1667V39.6668C61.4294 39.3691 54.3565 41.8765 48.9227 46.666C43.4888 51.4556 40.1133 58.1577 39.5 65.3751C36.3758 66.4843 33.8187 68.787 32.3894 71.7784C30.9601 74.7698 30.7751 78.2059 31.875 81.3334C32.9843 84.4577 35.2869 87.0147 38.2783 88.444C41.2697 89.8733 44.7058 90.0583 47.8333 88.9584C50.9548 87.8455 53.509 85.5423 54.9377 82.5521C56.3664 79.562 56.5536 76.1278 55.4583 73.0001C54.2083 69.4168 51.375 66.6251 47.8333 65.3751C49.7917 48.7084 66.4583 47.8751 68.4583 47.8751V60.3751L85.3333 43.8334ZM37.9583 46.2918C32.4297 42.025 25.6502 39.6968 18.6667 39.6668V27.1667L2 43.8334L18.6667 60.5001V48.0001C24.25 48.1251 29.625 50.0834 33.8333 53.8334C34.875 51.1667 36.25 48.6251 37.9583 46.2918Z" stroke="#52C99E" stroke-width="3" stroke-linejoin="round"/>
</svg>
