<?xml version="1.0" encoding="UTF-8" standalone="no"?>
<svg
   width="99"
   height="99"
   viewBox="0 0 99 99"
   fill="none"
   version="1.1"
   id="svg1"
   xmlns="http://www.w3.org/2000/svg"
   xmlns:svg="http://www.w3.org/2000/svg">
  <defs
     id="defs1" />
  <path
     d="M 89.436162,26.194564 C 89.080824,24.762011 87.288145,24.276542 86.244276,25.320412 L 74.447584,37.117103 63.678945,35.322886 61.884727,24.554161 73.681333,12.757529 C 74.73153,11.707315 74.225455,9.9178259 72.783412,9.5592902 65.266936,7.6968301 56.990536,9.703657 51.116002,15.57661 44.827477,21.865186 43.096615,30.980768 45.714283,38.928763 L 11.861507,72.781547 c -3.9644755,3.964464 -3.9644755,10.392696 0,14.35716 3.964456,3.964464 10.392688,3.964464 14.357152,0 L 60.042886,53.31448 c 7.951158,2.650927 17.049299,0.901084 23.37912,-5.428737 5.880861,-5.880861 7.884554,-14.169915 6.014156,-21.691179 z M 19.041703,83.765989 c -2.102017,0 -3.807452,-1.705469 -3.807452,-3.807486 0,-2.103557 1.705435,-3.807401 3.807452,-3.807401 2.102018,0 3.807401,1.703844 3.807401,3.807401 0,2.102017 -1.705383,3.807486 -3.807401,3.807486 z"
     stroke="#5ae2da"
     stroke-width="2.85"
     id="path1" />
</svg>
