<?xml version="1.0" encoding="UTF-8"?>
<svg width="400" height="400" fill="none" version="1.1" viewBox="0 0 400 400" xmlns="http://www.w3.org/2000/svg">
 <path d="m200 6.9498c-106.45 0-193.05 86.602-193.05 193.05 0 106.45 86.602 193.05 193.05 193.05 106.45 0 193.05-86.602 193.05-193.05 0-106.45-86.602-193.05-193.05-193.05zm-154.44 193.05c0-17.355 3.0116-34.015 8.3208-49.594l68.899 68.899v38.61l57.915 57.915v37.278c-76.042-9.556-135.14-74.498-135.14-153.11zm276.64 94.073c-12.606-10.155-31.718-16.853-44.981-16.853v-19.305c0-10.24-4.0675-20.06-11.308-27.301s-17.061-11.309-27.302-11.309h-77.22v-57.915c10.24 0 20.061-4.068 27.302-11.309 7.2408-7.2408 11.309-17.061 11.309-27.301v-19.305h19.305c10.24 0 20.061-4.068 27.302-11.309 7.2408-7.2408 11.309-17.061 11.309-27.301v-7.9344c56.525 22.953 96.525 78.397 96.525 143.07-3e-3 34.067-11.346 67.165-32.239 94.073z" stroke="#000" stroke-linejoin="round" stroke-width="13.9"/>
</svg>
