<?xml version="1.0" encoding="UTF-8"?>
<svg width="320" height="400" fill="none" version="1.1" viewBox="0 0 320 400" xmlns="http://www.w3.org/2000/svg">
 <path d="m160 7.2c42.452 0 81.314 8.9818 109.31 22.98 28.513 14.258 43.493 32.418 43.493 49.82v40c0 17.403-14.98 35.562-43.493 49.82-27.994 13.998-66.856 22.98-109.31 22.98-42.451 0-81.313-8.9818-109.31-22.98-28.513-14.258-43.493-32.417-43.493-49.82v-40c0-17.403 14.98-35.563 43.493-49.82 27.994-13.998 66.856-22.98 109.31-22.98zm152.8 288.12v24.679c0 17.402-14.98 35.562-43.493 49.82-27.994 13.998-66.856 22.98-109.31 22.98-42.451 0-81.313-8.9818-109.31-22.98-28.513-14.258-43.493-32.418-43.493-49.82v-24.679c9.1468 10.641 22.069 19.887 37.052 27.379 30.321 15.162 71.459 24.5 115.75 24.5 44.289 0 85.427-9.3379 115.75-24.5 14.983-7.4918 27.906-16.738 37.053-27.379z" stroke="#000" stroke-linejoin="round" stroke-width="14.4"/>
 <path d="m160 247.2c44.289 0 85.427-9.3379 115.75-24.5 14.983-7.4918 27.906-16.738 37.053-27.379v24.679c0 17.402-14.98 35.562-43.493 49.82-27.994 13.998-66.856 22.98-109.31 22.98-42.451 0-81.313-8.9818-109.31-22.98-28.513-14.258-43.493-32.418-43.493-49.82v-24.679c9.1468 10.641 22.069 19.887 37.052 27.379 30.321 15.162 71.459 24.5 115.75 24.5z" stroke="#000" stroke-linejoin="round" stroke-width="14.4"/>
</svg>
