<?xml version="1.0" encoding="UTF-8"?>
<svg width="381.58" height="400" fill="none" version="1.1" viewBox="0 0 381.58 400" xmlns="http://www.w3.org/2000/svg">
 <path d="m172.37 80.294h-55.248l73.664-73.664 73.664 73.664h-55.248v81.583c-13.812 8.4711-26.15 18.968-36.832 31.123zm202.58 110.5-73.664-73.664v55.249c-31.988-1.3158-63.249 9.7666-87.266 30.935-24.017 21.169-38.936 50.792-41.647 82.691-13.808 4.9025-25.11 15.08-31.428 28.302-6.3173 13.222-7.135 28.409-2.2736 42.232 4.9029 13.809 15.08 25.11 28.302 31.428s28.409 7.135 42.232 2.2736c13.797-4.9188 25.086-15.099 31.4-28.315 6.3146-13.216 7.142-28.394 2.301-42.218-5.5248-15.838-18.048-28.177-33.701-33.701 8.6558-73.664 82.32-77.347 91.159-77.347v55.248zm-209.39 10.866c-24.436-18.859-54.4-29.149-85.266-29.282v-55.249l-73.664 73.664 73.664 73.664v-55.248c24.677 0.55248 48.434 9.2079 67.034 25.782 4.6042-11.786 10.681-23.02 18.232-33.333z" stroke="#091712" stroke-linejoin="round" stroke-width="13.26"/>
</svg>
