<?xml version="1.0" encoding="UTF-8" standalone="no"?>
<svg
   style="isolation:isolate"
   width="295.56665"
   height="400"
   viewBox="0 0 295.56665 400"
   version="1.1"
   id="svg10530"
   sodipodi:docname="sigma.svg"
   inkscape:version="1.1.1 (3bf5ae0d25, 2021-09-20, custom)"
   xmlns:inkscape="http://www.inkscape.org/namespaces/inkscape"
   xmlns:sodipodi="http://sodipodi.sourceforge.net/DTD/sodipodi-0.dtd"
   xmlns="http://www.w3.org/2000/svg"
   xmlns:svg="http://www.w3.org/2000/svg">
  <sodipodi:namedview
     id="namedview10532"
     pagecolor="#505050"
     bordercolor="#eeeeee"
     borderopacity="1"
     inkscape:pageshadow="0"
     inkscape:pageopacity="0"
     inkscape:pagecheckerboard="0"
     showgrid="false"
     inkscape:zoom="0.52014706"
     inkscape:cx="-280.68985"
     inkscape:cy="126.88719"
     inkscape:window-width="1600"
     inkscape:window-height="869"
     inkscape:window-x="0"
     inkscape:window-y="0"
     inkscape:window-maximized="1"
     inkscape:current-layer="svg10530"
     inkscape:lockguides="true"
     showguides="false"
     fit-margin-top="0"
     fit-margin-left="0"
     fit-margin-right="0"
     fit-margin-bottom="0" />
  <defs
     id="defs10524">
    <clipPath
       id="_clipPath_ufUKWNh03Q0ow8cg9bS2G9dNbT4C2wP3">
      <rect
         width="636"
         height="833.5"
         id="rect10521"
         x="0"
         y="0" />
    </clipPath>
    <filter
       style="color-interpolation-filters:sRGB"
       inkscape:label="Invert"
       id="filter1800"
       x="0"
       y="0"
       width="1"
       height="1">
      <feColorMatrix
         values="-1 0 0 0 1 0 -1 0 0 1 0 0 -1 0 1 -0.21 -0.72 -0.07 2 0 "
         result="color2"
         id="feColorMatrix1798" />
    </filter>
  </defs>
  <path
     style="fill:none;stroke-width:1;stroke:#000000;stroke-opacity:1;stroke-miterlimit:4;stroke-dasharray:none"
     d="m 7.0115382,398.17465 c -2.04156,-1.09759 -4.6217,-4.43807 -5.73366,-7.4233 -1.96010997,-5.26226 -1.76934997,-8.5719 1.29864,-22.53089 l 1.45732,-6.63069 12.0135998,-0.94724 12.0136,-0.94725 17.31164,-18.1781 c 17.04939,-17.90271 17.31165,-18.30961 17.31165,-26.85888 0,-7.12153 0.80629,-9.38607 4.48883,-12.60725 5.34534,-4.67566 17.09372,-5.28661 22.01781,-1.14499 4.60444,3.87275 5.33041,3.62259 6.66652,-2.29728 1.51049,-6.69247 3.9711,-9.90395 9.347702,-12.20026 l 4.3291,-1.84892 -4.66358,-2.73797 c -6.394632,-3.75424 -9.817312,-11.97391 -9.817312,-23.57658 0,-8.569 0.70471,-10.53959 5.792352,-16.19718 4.90845,-5.45831 6.98825,-6.44124 13.62909,-6.44124 h 7.83671 v -12.17664 c 0,-10.89816 0.47132,-12.58891 4.48885,-16.10312 5.15359,-4.50794 14.70437,-5.08765 20.90171,-1.2687 3.58654,2.21014 5.38494,1.94589 14.4809,-2.12774 5.71218,-2.5582 10.9459,-5.24201 11.63049,-5.96399 0.68459,-0.72201 -4.11912,-5.05543 -10.6749,-9.62985 -10.14644,-7.07987 -13.30251,-8.33945 -21.21575,-8.46718 -7.106,-0.1147 -10.15411,-1.1043 -12.93784,-4.20043 -4.73646,-5.268 -6.37887,-19.76924 -2.91651,-25.75062 3.26067,-5.63296 0.96055,-16.61384 -3.48004,-16.61384 -4.9658,0 -9.00747,-4.49841 -10.28563,-11.44802 -1.40148,-7.62011 -5.68095,-9.4393 -10.58805,-4.50095 -1.952922,1.96535 -7.018512,3.67024 -12.371852,4.16392 -17.11968,1.57873 -25.99337,-8.36543 -24.56437,-27.52769 L 65.544848,83.71605 52.863978,68.72614 C 40.485108,54.09321 39.990748,53.73622 32.105948,53.73622 c -10.72751,0 -14.41152,-4.40413 -14.79681,-17.6892 l -0.28367,-9.78081 -6.55827,-0.94724 -6.5582798,-0.94724 -0.50482,-10.66588 c -0.47856,-10.1107502 -0.27374,-10.7303702 3.93518,-11.9050802 5.1182698,-1.42850998 16.5326498,0.50998 18.0263298,3.06139 0.55719,0.95175 7.71719,2.83272 15.91111,4.17993 14.7515,2.4253802 14.91502,2.4080102 16.6252,-1.76589 1.36985,-3.34328 3.66546,-4.4687 11.09619,-5.43987 11.80982,-1.54349998 26.06781,0.47524 27.23444,3.85603 1.24852,3.61805 6.395802,3.10112 19.689702,-1.97739 9.75034,-3.72479998 12.53517,-4.08515998 18.31407,-2.3699 5.37502,1.59539 6.81522,2.9174 6.81522,6.25589 0,6.0329702 2.82243,7.2774602 14.96454,6.5982802 7.89989,-0.44188 11.86175,0.2437 15.11762,2.61601 6.11009,4.45197 11.71899,1.46476 13.14737,-7.0020302 0.96907,-5.74433 1.84923,-6.53855 9.47973,-8.55417 6.16634,-1.62885998 9.91736,-1.67174998 14.05336,-0.16067 3.10303,1.13368 6.60017,2.33149 7.77142,2.6618 1.17125,0.33031 2.12955,2.75861 2.12955,5.39622 0,6.0407102 3.51442,6.2201702 10.43893,0.53308 7.32064,-6.01243 22.3956,-5.90276 30.12697,0.21918 l 5.50945,4.3625502 1.69944,-5.4211702 c 1.38197,-4.40843 3.19716,-5.80758 9.71662,-7.48961 15.79334,-4.07471 23.39602,4.48463 18.94206,21.3256002 -1.27895,4.83583 -3.4753,9.26251 -4.8808,9.83708 -6.26681,2.56186 -6.90404,11.89289 -1.10095,16.12117 4.72112,3.43993 6.80002,17.00704 5.08027,33.15433 -0.90273,8.47588 -1.80076,10.43655 -5.84562,12.76254 -6.29747,3.62136 -20.83844,3.50458 -27.31431,-0.21936 -8.98353,-5.16598 -13.07442,-24.72672 -7.62037,-36.43706 l 2.38266,-5.11575 -9.28463,0.65459 c -5.10654,0.36003 -11.18565,0.12401 -13.50913,-0.52446 -5.00963,-1.3982 -10.91799,-11.34659 -10.92696,-18.39865 -0.008,-6.36167 -4.07822,-8.15143 -9.52016,-4.18629 -3.23594,2.35779 -6.68611,2.82975 -14.74555,2.01708 -13.62425,-1.3738 -16.6279,0.44249 -16.6279,10.05484 0,11.757 -7.0007,19.24653 -19.02695,20.35557 -10.91261,1.00633 -19.21304,-2.75516 -22.20761,-10.06381 -2.09153,-5.10463 -8.17085,-6.38231 -8.17085,-1.71724 0,1.61031 -1.88174,5.02038 -4.18165,7.57793 -3.29974,3.66938 -5.90466,4.63739 -12.35136,4.58985 -10.90548,-0.0804 -17.539702,-6.41736 -17.539702,-16.75375 0,-5.18274 -2.55681,-6.52997 -6.86232,-3.61588 -3.19568,2.16294 -3.47513,3.58614 -2.52353,12.85194 1.5056,14.66012 2.35604,17.05035 6.06651,17.05035 6.0977,0 13.996042,9.98482 15.119032,19.11299 0.92995,7.55911 1.43235,8.29858 5.26193,7.74493 19.5872,-2.83176 22.34774,-2.65426 26.52073,1.70523 5.44276,5.68601 5.88249,21.20402 0.77227,27.25297 -4.43403,5.24854 -2.92784,12.38528 2.61388,12.38528 10.07854,0 16.066,7.43937 16.066,19.96187 0,5.82583 1.02866,7.2817 9.63449,13.63576 8.80921,6.50421 10.48101,7.05933 19.51682,6.48053 8.72103,-0.55864 10.39161,-0.0667 14.21639,4.18658 3.38981,3.76954 4.33408,6.72287 4.33408,13.55544 0,4.8047 -0.76076,10.31655 -1.69055,12.24855 -3.36887,6.99993 -20.19378,9.30439 -26.55141,3.63666 -1.09344,-0.97479 -6.43176,0.3914 -13.20317,3.37897 -9.56849,4.22163 -11.36756,5.72817 -11.36756,9.51922 0,6.82124 -7.2349,13.80404 -14.30242,13.80404 -5.93577,0 -5.93775,0.004 -3.49521,5.20983 3.48397,7.42694 3.08821,21.10027 -0.81687,28.22195 -1.98413,3.61846 -5.67693,6.84545 -9.39514,8.21003 l -6.1261,2.2483 4.29061,5.6703 c 6.38587,8.43936 6.02926,20.788 -0.8203,28.40488 -6.57827,7.31519 -7.02634,16.04283 -0.9554,18.60957 2.28553,0.9663 5.03748,3.58951 6.11546,5.82936 1.94786,4.04735 1.59153,19.0923 -0.5809,24.52617 -1.89862,4.74902 1.23334,8.3076 5.22226,5.93364 2.85738,-1.70053 3.28156,-3.4032 2.57774,-10.34705 -1.80808,-17.83826 8.78519,-29.10805 25.66533,-27.30437 11.51563,1.23044 18.17547,8.93403 18.17547,21.02392 0,6.88843 0.67418,8.53279 4.2389,10.33893 3.61731,1.83278 9.39018,1.39699 9.39018,-0.70888 0,-0.36215 -1.91659,-2.78974 -4.25909,-5.39465 -5.37515,-5.9773 -5.7824,-16.47585 -0.85182,-21.95879 6.19531,-6.88933 22.14726,-4.04261 22.14726,3.95229 0,2.61325 1.99037,4.74377 6.30427,6.74815 5.71704,2.65633 6.73331,2.64733 10.91058,-0.0966 2.71889,-1.78601 8.45423,-3.02583 13.99738,-3.02583 10.54527,0 11.52278,-1.21634 9.09756,-11.32022 -2.27084,-9.46084 -0.12146,-19.95641 5.52645,-26.98559 4.11754,-5.12458 6.15498,-6.04374 14.96822,-6.75264 7.13154,-0.57363 11.7488,0.069 15.34172,2.13503 4.52225,2.60054 5.27572,4.24194 6.27131,13.66178 1.71233,16.20119 -0.27926,28.66846 -5.2781,33.04104 -3.40027,2.97427 -3.97243,4.71683 -3.06213,9.32571 0.61573,3.11739 2.43163,6.13107 4.03537,6.69711 4.0459,1.42797 8.04187,17.09144 6.00408,23.53494 -2.25638,7.13474 -9.95681,10.83288 -16.81462,8.07527 -2.94872,-1.18579 -6.64851,-2.15592 -8.22173,-2.15592 -4.59267,0 -4.03528,-20.15166 0.71286,-25.772 4.54602,-5.38111 3.21251,-14.97768 -2.30419,-16.58192 -5.65116,-1.64337 -8.08361,2.07838 -8.08361,12.36822 0,12.96732 -3.59033,19.85457 -11.77103,22.58015 -13.48996,4.49444 -27.41257,-3.23398 -27.41257,-15.21673 0,-4.80624 -1.00312,-6.21021 -6.1437,-8.59869 -7.96898,-3.70265 -11.00231,-1.60189 -4.26538,2.95405 5.77572,3.9059 7.50872,8.99319 6.69445,19.65187 -0.50276,6.58106 -1.12944,7.34586 -8.18259,9.98611 -5.98864,2.24178 -8.77408,2.40247 -12.89822,0.74409 -2.89305,-1.16332 -6.54728,-2.11515 -8.1205,-2.11515 -2.03699,0 -2.8604,-1.62207 -2.8604,-5.6348 0,-7.82797 -7.39671,-12.36512 -13.66565,-8.3825 -2.6994,1.71492 -8.21694,2.52745 -15.29615,2.25258 -12.55522,-0.48753 -15.33272,0.731 -15.33272,6.72672 0,3.36413 -1.56519,4.72473 -7.78423,6.7667 -5.78979,1.90104 -8.27783,2.007 -9.71072,0.4136 -1.05957,-1.17827 -3.40397,-2.1423 -5.20978,-2.1423 -2.90785,0 -3.19086,-1.06978 -2.47494,-9.35519 0.4446,-5.14533 0.35047,-10.15604 -0.20916,-11.13488 -0.55963,-0.97884 -4.27571,-2.3853 -8.25796,-3.12548 l -7.24044,-1.34578 -0.0251,7.27084 c -0.056,16.21247 -7.871372,21.02838 -30.140112,18.57262 -8.65104,-0.95403 -10.77499,-1.87219 -11.68199,-5.05003 -1.00311,-3.51458 -2.01231,-3.7659 -10.60981,-2.64223 -5.22568,0.68297 -10.5991,2.25498 -11.94091,3.49333 -6.69861,6.18213 -21.60404,8.69814 -28.7548298,4.85374 z M 49.328728,376.50441 c 5.42607,-0.99778 6.3749,-1.96886 7.3038,-7.47499 1.0438,-6.1872 7.78454,-14.07035 12.03132,-14.07035 2.15443,0 4.24229,-8.11531 4.24229,-16.48941 0,-4.0425 -2.42866,-2.13289 -18.61933,14.64014 -22.03109,22.8235 -22.84938,26.68461 -4.95808,23.39461 z m 48.76416,-25.34981 c 0.33349,-4.55783 2.060202,-8.13547 5.552042,-11.5035 4.15908,-4.01161 4.88789,-5.88985 4.06365,-10.47267 -0.616,-3.42509 -2.87718,-6.77961 -5.84789,-8.67558 -5.421132,-3.45983 -6.807292,-2.80426 -6.807292,3.21937 0,4.28978 -3.80787,8.97183 -8.94409,10.99737 -2.30426,0.90871 -2.98136,3.34052 -2.98136,10.70762 0,8.17227 0.47166,9.53186 3.30673,9.53186 1.8187,0 3.80676,0.89974 4.41792,1.99939 2.39627,4.31157 6.75584,0.81692 7.24029,-5.80386 z M 77.467378,68.41847 c -0.51087,-3.38639 -1.42212,-9.72702 -2.025,-14.09028 -0.92932,-6.72588 -1.82134,-8.11034 -5.86133,-9.09707 -5.87121,-1.43399 -11.74999,-8.14318 -13.49566,-15.40196 -0.72185,-3.00159 -2.473,-5.7061 -3.89145,-6.01003 -2.13021,-0.45644 -2.44882,1.35665 -1.83093,10.41966 0.733,10.75148 1.00937,11.26769 13.73516,25.6545 7.14292,8.07524 13.28209,14.68225 13.64259,14.68225 0.36052,0 0.2375,-2.77068 -0.27338,-6.15707 z M 271.58134,44.2638 c 0.12334,0 0.70533,-2.67509 1.29335,-5.94465 0.79615,-4.42674 0.30679,-6.58818 -1.91659,-8.46492 -4.41952,-3.73053 -5.54004,-3.212 -5.55169,2.56905 -0.005,2.86541 -1.0697,7.46731 -2.36428,10.22644 l -2.35378,5.01662 5.33439,-1.70127 c 2.93391,-0.9357 5.43529,-1.70127 5.5586,-1.70127 z M 136.4401,30.97762 c 1.10273,-4.68925 -3.11371,-7.55313 -11.12036,-7.55313 -3.1537,0 -6.59632,-0.95893 -7.65028,-2.13095 -1.23613,-1.37461 -4.71893,-1.66359 -9.81259,-0.81418 -6.18168,1.03085 -7.75974,2.00779 -7.26735,4.49906 0.34593,1.75025 1.73338,2.86792 3.08323,2.4837 10.72185,-3.05184 16.44541,-2.42709 21.30843,2.32588 6.0346,5.89803 10.2488,6.33553 11.45892,1.18962 z"
     id="path2186" />
  <path
     style="fill:#000000;stroke-width:1.78923"
     id="path2146"
     d="" />
</svg>
