<?xml version="1.0" encoding="UTF-8" standalone="no"?>
<!-- Created with Inkscape (http://www.inkscape.org/) -->

<svg
   width="96"
   height="96"
   viewBox="0 0 96 96"
   version="1.1"
   id="svg5"
   xmlns="http://www.w3.org/2000/svg"
   xmlns:svg="http://www.w3.org/2000/svg">
  <defs
     id="defs2" />
  <g
     style="fill:none;stroke-width:3.62169;stroke-miterlimit:4;stroke-dasharray:none"
     id="g1150"
     transform="matrix(1.0013868,0,0,1.0013868,4.2663686,2.394715)">
    <path
       id="path1141"
       style="stroke:#52c99e;stroke-width:3.62169;stroke-miterlimit:4;stroke-dasharray:none;stroke-opacity:1"
       d="M 39.5,18.8334 H 27 L 43.6667,2.16675 60.3333,18.8334 h -12.5 v 18.4584 c -3.125,1.9166 -5.9166,4.2916 -8.3333,7.0416 z m 45.8333,25 -16.6666,-16.6667 v 12.5001 c -7.2373,-0.2977 -14.3102,2.2097 -19.744,6.9992 -5.4339,4.7896 -8.8094,11.4917 -9.4227,18.7091 -3.1242,1.1092 -5.6813,3.4119 -7.1106,6.4033 -1.4293,2.9914 -1.6143,6.4275 -0.5144,9.555 1.1093,3.1243 3.4119,5.6813 6.4033,7.1106 2.9914,1.4293 6.4275,1.6143 9.555,0.5144 3.1215,-1.1129 5.6757,-3.4161 7.1044,-6.4063 1.4287,-2.9901 1.6159,-6.4243 0.5206,-9.552 -1.25,-3.5833 -4.0833,-6.375 -7.625,-7.625 1.9584,-16.6667 18.625,-17.5 20.625,-17.5 v 12.5 z m -47.375,2.4584 C 32.4297,42.025 25.6502,39.6968 18.6667,39.6668 V 27.1667 L 2,43.8334 18.6667,60.5001 v -12.5 c 5.5833,0.125 10.9583,2.0833 15.1666,5.8333 1.0417,-2.6667 2.4167,-5.2083 4.125,-7.5416 z" />
  </g>
</svg>
